<svg width="35" height="35" viewBox="0 0 35 35" fill="none" xmlns="http://www.w3.org/2000/svg">
<g id="Icon/Font Awesome Free/Solid/E/eye-slash">
<path id="Vector" d="M31.8095 27.2979L4.55769 5.99365C4.48295 5.9338 4.39714 5.88926 4.30518 5.86258C4.21322 5.83589 4.11691 5.82758 4.02174 5.83812C3.92657 5.84865 3.8344 5.87783 3.75051 5.92399C3.66662 5.97014 3.59263 6.03237 3.53279 6.10712L3.07707 6.67631C3.01709 6.75108 2.97243 6.83695 2.94567 6.92899C2.9189 7.02104 2.91055 7.11746 2.92109 7.21274C2.93163 7.30802 2.96086 7.40029 3.00709 7.48426C3.05333 7.56824 3.11567 7.64227 3.19055 7.70212L30.4423 29.0064C30.5171 29.0662 30.6029 29.1107 30.6948 29.1374C30.7868 29.1641 30.8831 29.1724 30.9783 29.1619C31.0734 29.1513 31.1656 29.1222 31.2495 29.076C31.3334 29.0299 31.4074 28.9676 31.4672 28.8929L31.9229 28.3237C31.9829 28.2489 32.0276 28.1631 32.0543 28.071C32.0811 27.979 32.0895 27.8825 32.0789 27.7873C32.0684 27.692 32.0392 27.5997 31.9929 27.5157C31.9467 27.4318 31.8843 27.3577 31.8095 27.2979ZM16.4423 12.5086L22.5849 17.3109C22.4837 14.5793 20.2562 12.396 17.5 12.396C17.1445 12.3967 16.79 12.4344 16.4423 12.5086ZM18.5577 22.4919L12.4151 17.6896C12.5168 20.4207 14.7443 22.604 17.5 22.604C17.8555 22.6033 18.21 22.5657 18.5577 22.4919ZM17.5 10.9377C21.9956 10.9377 26.1171 13.4441 28.3428 17.5C27.7972 18.4982 27.1231 19.4205 26.3377 20.2434L28.0576 21.5878C29.0151 20.5634 29.8264 19.4115 30.4683 18.1649C30.5725 17.9587 30.6269 17.7308 30.6269 17.4998C30.6269 17.2687 30.5725 17.0409 30.4683 16.8347C27.9947 12.0127 23.1021 8.75027 17.5 8.75027C15.8275 8.75027 14.2321 9.06927 12.7319 9.60747L14.8468 11.2613C15.71 11.0653 16.594 10.9377 17.5 10.9377ZM17.5 24.0623C13.0044 24.0623 8.88334 21.5559 6.65717 17.5C7.20347 16.5018 7.87838 15.5796 8.6646 14.757L6.94473 13.4127C5.98734 14.4369 5.17622 15.5886 4.53445 16.8351C4.4302 17.0413 4.37589 17.2692 4.37589 17.5002C4.37589 17.7313 4.4302 17.9591 4.53445 18.1653C7.00579 22.9873 11.8984 26.2497 17.5 26.2497C19.1725 26.2497 20.7679 25.9285 22.2682 25.3925L20.1532 23.7392C19.2901 23.9347 18.4064 24.0623 17.5 24.0623Z" fill="#B8B8B8"/>
</g>
</svg>
