<svg width="35" height="35" viewBox="0 0 35 35" fill="none" xmlns="http://www.w3.org/2000/svg">
<g id="Icon/Font Awesome Free/Solid/E/eye">
<path id="Vector" d="M17.5 11.8287C16.9633 11.8371 16.4306 11.9223 15.9181 12.0819C16.1552 12.4988 16.2814 12.9695 16.2847 13.4491C16.2847 13.8214 16.2114 14.1902 16.0689 14.5342C15.9264 14.8783 15.7175 15.1909 15.4542 15.4542C15.1909 15.7175 14.8783 15.9264 14.5342 16.0689C14.1902 16.2114 13.8214 16.2847 13.4491 16.2847C12.9695 16.2814 12.4988 16.1552 12.0819 15.9181C11.753 17.0588 11.7913 18.2742 12.1915 19.3919C12.5916 20.5096 13.3333 21.4732 14.3115 22.1459C15.2897 22.8187 16.4547 23.1667 17.6417 23.1405C18.8286 23.1144 19.9772 22.7155 20.9248 22.0002C21.8724 21.285 22.5709 20.2898 22.9215 19.1555C23.272 18.0212 23.2568 16.8054 22.878 15.6803C22.4991 14.5551 21.7759 13.5777 20.8107 12.8864C19.8454 12.1952 18.6872 11.8251 17.5 11.8287V11.8287ZM31.9071 16.7607C29.1611 11.4028 23.7248 7.77776 17.5 7.77776C11.2752 7.77776 5.83736 11.4054 3.09285 16.7612C2.97702 16.9903 2.91667 17.2435 2.91667 17.5003C2.91667 17.757 2.97702 18.0102 3.09285 18.2393C5.83888 23.5972 11.2752 27.2222 17.5 27.2222C23.7248 27.2222 29.1626 23.5946 31.9071 18.2388C32.023 18.0097 32.0833 17.7565 32.0833 17.4997C32.0833 17.243 32.023 16.9898 31.9071 16.7607V16.7607ZM17.5 24.7917C12.5047 24.7917 7.92511 22.0067 5.45202 17.5C7.92511 12.9933 12.5042 10.2083 17.5 10.2083C22.4958 10.2083 27.0749 12.9933 29.548 17.5C27.0754 22.0067 22.4958 24.7917 17.5 24.7917Z" fill="#B8B8B8"/>
</g>
</svg>
